<svg width="1080" height="1080" viewBox="0 0 1080 1080" fill="none" xmlns="http://www.w3.org/2000/svg">
<g clip-path="url(#clip0_1_233)">
<rect width="1080" height="1080" fill="white"/>
<rect width="1080" height="1080" fill="#64B0C7"/>
<path d="M524.674 668.918H557.682V794.983C557.682 804.97 560.729 813.095 566.822 819.358C572.916 825.621 581.295 828.752 591.959 828.752C603.893 828.752 613.16 825.705 619.762 819.612C626.448 813.433 629.791 805.012 629.791 794.348V668.918H662.799V796.887C662.799 816.015 656.367 830.995 643.502 841.828C630.722 852.662 613.626 858.078 592.213 858.078C570.631 858.078 553.958 852.789 542.193 842.209C530.514 831.63 524.674 816.48 524.674 796.76V668.918Z" fill="white"/>
<path d="M332.975 760.324C332.975 733.834 340.211 711.448 354.684 693.166C369.241 674.8 388.665 665.617 412.955 665.617C439.7 665.617 460.139 673.912 474.273 690.5C488.408 707.089 495.475 730.364 495.475 760.324C495.475 790.285 488.069 814.068 473.258 831.672C458.531 849.276 437.584 858.078 410.416 858.078C385.449 858.078 366.279 849.361 352.906 831.926C339.618 814.491 332.975 790.624 332.975 760.324ZM367.252 760.324C367.252 782.076 370.934 798.918 378.297 810.852C385.66 822.785 396.367 828.752 410.416 828.752C426.92 828.752 439.488 822.912 448.121 811.233C456.839 799.553 461.197 782.584 461.197 760.324C461.197 716.737 445.117 694.944 412.955 694.944C398.229 694.944 386.93 700.868 379.059 712.717C371.188 724.481 367.252 740.351 367.252 760.324Z" fill="white"/>
<path d="M259.723 778.606V854.905H226.715V778.606L164 668.918H199.039L243.092 748.264L287.271 668.918H322.184L259.723 778.606Z" fill="white"/>
<path d="M646.041 626.621L658.229 597.041C671.262 606.182 684.085 610.752 696.695 610.752C716.077 610.752 725.768 603.981 725.768 590.44C725.768 584.092 723.482 578.041 718.912 572.285C714.342 566.53 704.905 560.098 690.602 552.989C676.383 545.795 666.777 539.912 661.783 535.342C656.874 530.687 653.066 525.186 650.357 518.838C647.734 512.49 646.422 505.466 646.422 497.764C646.422 483.376 651.669 471.442 662.164 461.963C672.743 452.484 686.285 447.744 702.789 447.744C724.286 447.744 740.071 451.765 750.143 459.805L740.113 488.242C728.518 479.948 716.288 475.801 703.424 475.801C695.807 475.801 689.882 477.832 685.65 481.895C681.503 485.873 679.43 491.078 679.43 497.51C679.43 508.174 691.236 519.261 714.85 530.772C727.291 536.865 736.262 542.494 741.764 547.656C747.265 552.735 751.454 558.701 754.332 565.557C757.21 572.328 758.648 579.903 758.648 588.281C758.648 603.347 752.682 615.746 740.748 625.479C728.899 635.212 712.988 640.078 693.014 640.078C675.663 640.078 660.006 635.593 646.041 626.621Z" fill="white"/>
<path d="M478.717 450.918H511.725V576.983C511.725 586.97 514.771 595.095 520.865 601.358C526.959 607.621 535.338 610.752 546.002 610.752C557.936 610.752 567.203 607.705 573.805 601.612C580.491 595.433 583.834 587.012 583.834 576.348V450.918H616.842V578.887C616.842 598.015 610.41 612.995 597.545 623.828C584.765 634.662 567.669 640.078 546.256 640.078C524.674 640.078 508.001 634.789 496.236 624.209C484.557 613.63 478.717 598.48 478.717 578.76V450.918Z" fill="white"/>
<path d="M335.006 636.905V450.918H368.014V607.578H452.057V636.905H335.006Z" fill="white"/>
<path d="M215.416 568.477V636.905H182.408V451.045C204.413 450.114 217.278 449.649 221.002 449.649C250.37 449.649 271.826 454.177 285.367 463.233C298.993 472.204 305.807 486.254 305.807 505.381C305.807 548.037 280.67 569.365 230.396 569.365C226.673 569.365 221.679 569.069 215.416 568.477ZM215.416 479.61V539.151C221.002 539.743 225.403 540.039 228.619 540.039C243.684 540.039 254.687 537.543 261.627 532.549C268.567 527.471 272.037 519.261 272.037 507.92C272.037 488.623 256.507 478.975 225.445 478.975C221.975 478.975 218.632 479.186 215.416 479.61Z" fill="white"/>
<path d="M876.842 418.905L827.203 342.098C822.21 342.013 815.227 341.717 806.256 341.209V418.905H771.979V232.918C773.84 232.918 780.992 232.622 793.434 232.03C805.875 231.352 815.904 231.014 823.521 231.014C870.748 231.014 894.361 249.295 894.361 285.858C894.361 296.86 891.103 306.89 884.586 315.946C878.069 325.002 869.859 331.392 859.957 335.115L914.928 418.905H876.842ZM806.256 261.61V313.28C812.35 313.787 817.005 314.041 820.221 314.041C834.016 314.041 844.088 312.095 850.436 308.201C856.868 304.308 860.084 296.733 860.084 285.477C860.084 276.336 856.656 269.946 849.801 266.307C842.945 262.668 832.154 260.848 817.428 260.848C813.873 260.848 810.149 261.102 806.256 261.61Z" fill="white"/>
<path d="M656.959 262.244V305.789H718.404V333.846H656.959V389.578H741.256V418.905H623.951V232.918H742.652V262.244H656.959Z" fill="white"/>
<path d="M482.018 408.621L494.205 379.041C507.239 388.182 520.061 392.752 532.672 392.752C552.053 392.752 561.744 385.981 561.744 372.44C561.744 366.092 559.459 360.041 554.889 354.285C550.318 348.53 540.882 342.098 526.578 334.989C512.359 327.795 502.753 321.912 497.76 317.342C492.851 312.687 489.042 307.186 486.334 300.838C483.71 294.49 482.398 287.466 482.398 279.764C482.398 265.376 487.646 253.442 498.141 243.963C508.72 234.484 522.262 229.744 538.766 229.744C560.263 229.744 576.048 233.765 586.119 241.805L576.09 270.242C564.495 261.948 552.265 257.801 539.4 257.801C531.783 257.801 525.859 259.832 521.627 263.895C517.48 267.873 515.406 273.078 515.406 279.51C515.406 290.174 527.213 301.261 550.826 312.772C563.268 318.865 572.239 324.494 577.74 329.656C583.242 334.735 587.431 340.701 590.309 347.557C593.186 354.328 594.625 361.903 594.625 370.281C594.625 385.347 588.658 397.746 576.725 407.479C564.876 417.212 548.964 422.078 528.99 422.078C511.64 422.078 495.982 417.593 482.018 408.621Z" fill="white"/>
<path d="M434.664 418.905L421.08 381.199H357.35L344.4 418.905H307.711L381.852 230.379H396.324L471.1 418.905H434.664ZM389.088 287.254L366.744 355.936H411.432L389.088 287.254Z" fill="white"/>
<path d="M182.408 418.905V232.918H215.416V389.578H299.459V418.905H182.408Z" fill="white"/>
</g>
<defs>
<clipPath id="clip0_1_233">
<rect width="1080" height="1080" fill="white"/>
</clipPath>
</defs>
</svg>
